<?xml version="1.0" standalone="no"?>
<!DOCTYPE svg PUBLIC "-//W3C//DTD SVG 20010904//EN"
 "http://www.w3.org/TR/2001/REC-SVG-20010904/DTD/svg10.dtd">
<svg version="1.0" xmlns="http://www.w3.org/2000/svg"
 width="640.000000pt" height="640.000000pt" viewBox="0 0 640.000000 640.000000"
 preserveAspectRatio="xMidYMid meet">
<metadata>
Created by potrace 1.14, written by Peter Selinger 2001-2017
</metadata>
<g transform="translate(0.000000,640.000000) scale(0.100000,-0.100000)"
fill="#000000" stroke="none">
<path d="M3090 5641 c-46 -24 -70 -59 -77 -110 -7 -55 17 -109 62 -139 l35
-22 0 -130 0 -130 -42 -1 c-92 -2 -169 -12 -202 -25 -15 -6 -18 -4 -12 7 4 8
1 7 -6 -3 -10 -12 -19 -13 -31 -7 -9 6 -17 6 -17 1 0 -5 -6 -9 -12 -9 -18 -1
-53 -9 -118 -27 -30 -9 -66 -19 -80 -22 -14 -4 -30 -10 -35 -15 -6 -4 -41 13
-80 39 l-70 47 0 88 0 88 34 21 c91 56 84 200 -11 249 -88 45 -190 3 -217 -89
-17 -59 10 -132 60 -160 16 -10 29 -21 30 -27 1 -5 2 -56 3 -111 2 -114 4
-118 77 -165 l49 -31 -42 -21 c-24 -12 -44 -25 -46 -29 -2 -4 -10 -8 -18 -8
-8 0 -14 -4 -14 -9 0 -5 -8 -12 -18 -15 -10 -4 -27 -14 -38 -24 -82 -73 -113
-102 -106 -102 4 0 0 -6 -8 -13 -9 -7 -26 -29 -39 -49 -12 -21 -28 -38 -34
-38 -6 0 -35 12 -64 27 l-52 27 0 61 c0 56 2 62 29 77 42 24 70 75 70 127 0
137 -174 198 -263 92 -55 -66 -44 -161 25 -209 l38 -27 0 -87 c0 -101 0 -100
118 -157 l72 -35 0 -867 c0 -577 3 -870 10 -874 6 -4 8 -10 6 -14 -8 -12 56
-67 89 -78 17 -5 79 -9 138 -8 93 1 110 -2 118 -16 6 -11 5 -20 -1 -24 -6 -3
-6 -15 0 -29 5 -13 6 -27 2 -30 -11 -12 -9 -196 2 -196 8 0 8 -2 0 -8 -10 -7
-14 -72 -4 -72 3 0 6 -19 7 -41 2 -23 8 -48 14 -55 10 -12 136 -14 743 -14
402 0 736 4 741 8 6 4 10 16 10 27 0 11 3 25 6 30 4 6 7 44 7 85 0 41 1 75 2
75 1 0 2 58 3 130 l2 130 105 1 c114 1 170 9 170 26 0 6 3 8 7 5 3 -4 19 12
35 35 l28 43 0 877 0 876 33 7 c62 13 185 56 195 68 6 7 11 50 11 97 0 70 3
87 17 95 34 19 64 59 76 97 26 87 -46 180 -139 181 -152 3 -210 -176 -88 -269
33 -25 35 -30 34 -80 -2 -58 -3 -60 -40 -68 -13 -3 -50 -13 -83 -22 -64 -19
-58 -22 -96 37 -19 29 -105 116 -149 149 -45 34 -95 64 -163 97 -32 15 -55 30
-50 33 4 4 50 23 102 44 52 20 101 40 109 45 9 6 15 31 17 73 1 34 3 65 3 68
1 3 14 13 30 23 39 23 73 95 66 138 -15 82 -65 124 -150 124 -71 0 -104 -20
-134 -78 -33 -66 -7 -151 56 -189 22 -13 29 -24 28 -47 0 -17 -5 -35 -10 -40
-6 -5 -58 -28 -118 -51 -59 -23 -111 -49 -116 -57 -7 -13 -14 -14 -45 -3 -21
6 -43 13 -49 14 -7 1 -18 6 -26 10 -10 7 -12 5 -6 -3 6 -10 3 -11 -11 -3 -11
6 -32 12 -49 15 -16 3 -42 9 -57 12 -16 3 -46 6 -68 8 -22 1 -40 6 -40 10 0 4
-10 3 -21 -4 -16 -8 -20 -8 -14 1 4 7 1 11 -6 9 -8 -1 -38 -1 -66 0 l-53 1 0
128 0 128 31 23 c80 59 92 156 27 226 -45 47 -119 58 -178 26z m104 -97 c21
-20 20 -47 -2 -67 -45 -41 -110 24 -66 67 8 9 24 16 34 16 10 0 26 -7 34 -16z
m-800 -105 c16 -24 11 -49 -13 -64 -49 -30 -97 18 -64 64 18 27 58 27 77 0z
m1659 -50 c18 -24 13 -51 -12 -66 -24 -15 -54 -7 -70 18 -30 48 50 95 82 48z
m-2122 -388 c20 -16 22 -23 14 -47 -13 -36 -59 -46 -81 -17 -19 25 -17 40 6
63 25 25 32 25 61 1z m2569 -1 c25 -25 25 -42 1 -64 -28 -25 -64 -17 -76 18
-8 24 -6 31 14 47 29 24 36 24 61 -1z m-1127 -139 c21 -8 26 -8 21 1 -4 6 -3
8 3 5 12 -7 68 -19 103 -21 14 0 30 -8 37 -16 9 -11 12 -12 13 -2 0 8 5 10 13
5 14 -9 34 -14 60 -16 9 -1 17 -5 17 -10 0 -4 5 -5 10 -2 6 3 10 1 10 -5 0 -6
5 -8 10 -5 6 3 10 2 10 -4 0 -5 11 -8 25 -6 14 1 25 -2 25 -6 0 -5 9 -9 19 -9
11 0 26 -8 33 -17 7 -10 18 -18 23 -18 6 -1 21 -6 35 -12 14 -6 33 -14 42 -17
11 -3 15 -11 12 -20 -4 -11 0 -14 15 -11 14 3 19 0 15 -7 -5 -7 -2 -9 9 -5 11
4 14 2 10 -9 -4 -10 2 -17 16 -21 15 -4 20 -11 16 -22 -3 -8 -3 -12 1 -8 4 4
13 -1 21 -11 8 -9 11 -11 7 -3 -5 9 -3 12 5 7 6 -4 9 -11 7 -15 -3 -4 2 -19
12 -32 21 -30 27 -63 10 -53 -10 6 -10 5 -1 -7 12 -15 12 -43 0 -55 -3 -4 -3
-12 0 -18 12 -19 11 -146 -1 -146 -8 0 -8 -3 -1 -8 15 -10 15 -72 1 -72 -7 0
-6 -3 2 -9 14 -8 13 -46 -2 -70 -6 -9 -5 -12 2 -7 12 7 11 -58 0 -70 -4 -4 -4
-12 0 -18 12 -19 10 -86 -2 -79 -7 4 -6 1 1 -8 12 -15 12 -43 0 -55 -4 -4 -2
-13 3 -19 11 -14 9 -42 -4 -64 -6 -9 -5 -12 2 -7 12 7 11 -58 0 -70 -4 -4 -4
-12 0 -18 12 -19 10 -86 -2 -79 -7 4 -6 1 1 -8 12 -15 12 -43 0 -55 -3 -4 -3
-12 0 -18 12 -19 12 -66 0 -66 -8 0 -9 -3 -1 -8 6 -4 10 -20 10 -37 0 -16 -4
-33 -10 -37 -8 -5 -8 -8 0 -8 14 0 15 -48 2 -56 -5 -3 -4 -11 2 -19 12 -14 10
-52 -4 -74 -6 -9 -5 -12 2 -7 12 7 11 -58 0 -70 -4 -4 -4 -12 -1 -18 12 -19
11 -106 -1 -106 -7 0 -8 -3 -1 -8 6 -4 11 -24 11 -44 0 -21 -2 -36 -4 -33 -3
2 -13 0 -23 -6 -13 -7 -19 -6 -19 1 0 6 -5 8 -12 3 -19 -11 -38 -13 -38 -3 0
5 -13 5 -30 0 -19 -5 -30 -5 -30 1 0 6 -8 5 -20 -1 -15 -8 -20 -8 -20 2 0 9
-3 9 -10 -2 -5 -8 -10 -10 -10 -4 0 11 -46 11 -57 0 -3 -3 -14 -1 -24 5 -11 6
-19 6 -19 0 0 -5 -7 -8 -17 -7 -14 1 -16 -17 -17 -161 -1 -92 2 -159 7 -156 5
3 5 -3 0 -13 -5 -11 -9 -48 -8 -84 l1 -65 -53 -1 c-34 0 -50 4 -45 10 4 8 1 8
-9 0 -8 -5 -34 -10 -59 -10 l-45 1 -3 177 -2 177 -27 20 c-19 16 -40 21 -82
21 -95 -1 -95 -1 -101 -213 l-5 -181 -77 -1 c-51 -1 -75 2 -70 9 4 8 1 8 -9 0
-8 -5 -25 -10 -39 -10 l-25 1 -5 182 c-3 100 -7 183 -10 186 -20 17 -56 27
-103 27 -43 0 -58 -5 -75 -23 -20 -21 -22 -34 -24 -197 l-3 -175 -95 0 -95 0
-1 88 c0 48 3 90 8 93 5 3 5 11 1 17 -11 18 -12 36 -2 42 4 3 4 16 -1 29 -4
12 -4 29 0 36 5 8 6 19 2 25 -10 16 -11 34 -1 41 5 3 6 11 2 17 -11 17 -12 88
-2 81 5 -3 6 2 3 10 -4 11 -12 13 -30 6 -13 -5 -24 -6 -24 -1 0 9 -43 7 -59
-4 -6 -3 -11 -1 -11 6 0 9 -3 9 -14 0 -10 -8 -16 -9 -21 -1 -4 7 -12 7 -26 0
-14 -8 -19 -7 -19 1 0 9 -3 9 -14 0 -10 -8 -16 -9 -21 -1 -4 7 -12 7 -26 0
-14 -8 -19 -7 -19 1 0 9 -3 9 -14 0 -10 -8 -16 -9 -21 -1 -4 7 -12 7 -26 0
-18 -10 -21 -7 -18 16 0 4 -5 11 -13 15 -7 5 -8 9 -3 9 6 0 10 13 11 30 1 16
-3 27 -7 24 -5 -3 -6 2 -3 11 11 28 10 175 -1 175 -5 0 -3 5 5 10 13 9 13 10
0 10 -9 0 -11 3 -5 8 6 4 10 34 10 67 0 33 -4 63 -10 67 -6 5 -4 8 5 8 13 0
13 1 0 10 -8 5 -10 10 -5 10 6 0 10 45 10 114 0 63 -3 112 -7 110 -4 -3 -5 2
-1 11 10 28 9 285 -2 285 -7 0 -7 3 0 8 13 9 17 64 5 57 -6 -3 -7 1 -4 10 11
28 10 175 -1 175 -5 0 -3 5 5 10 13 9 13 10 0 10 -9 0 -11 3 -5 8 6 4 10 34
10 67 0 33 -4 63 -10 67 -6 5 -4 8 5 8 13 0 13 1 0 10 -8 5 -10 10 -5 10 13 0
13 113 0 122 -6 5 -5 8 2 8 7 0 10 7 7 15 -4 8 -1 15 7 15 7 0 9 3 6 7 -4 3 1
12 11 20 10 9 11 11 2 7 -13 -7 -13 -6 0 12 26 34 48 53 54 47 6 -6 10 13 7
31 -1 5 6 3 15 -5 10 -8 15 -9 12 -4 -7 12 17 37 26 28 3 -4 6 1 6 10 0 10 6
16 13 15 6 -2 11 3 9 11 -3 12 -1 12 13 1 14 -11 16 -11 13 0 -2 8 2 15 7 15
12 2 53 21 75 34 23 14 54 24 68 22 6 -1 12 2 12 7 0 6 7 13 16 16 8 3 12 2 9
-4 -3 -6 1 -7 9 -4 9 3 16 10 16 14 0 4 8 7 18 7 33 0 43 3 38 11 -3 5 8 6 25
4 16 -2 29 0 29 6 0 6 13 9 30 7 17 -2 30 1 30 6 0 6 4 7 10 4 5 -3 19 -1 30
5 15 8 20 8 20 -2 0 -9 3 -9 10 2 5 8 10 10 10 4 0 -9 8 -9 33 0 42 14 372 12
410 -3z"/>
<path d="M3331 4446 c-46 -25 -50 -48 -51 -254 0 -210 6 -238 55 -260 17 -8
89 -12 210 -12 121 0 193 4 210 12 49 22 55 50 55 258 0 208 -6 236 -55 258
-38 18 -392 16 -424 -2z"/>
<path d="M2543 4300 c-41 -17 -53 -59 -53 -184 0 -194 3 -196 270 -196 267 0
270 2 270 195 0 193 -3 195 -272 194 -106 0 -203 -4 -215 -9z"/>
<path d="M3010 3720 l-21 -21 28 -47 c15 -26 39 -67 54 -92 l27 -44 -26 -46
c-14 -25 -39 -65 -54 -89 -28 -45 -26 -72 7 -85 26 -10 39 2 79 74 l39 70 34
-53 c18 -28 37 -62 43 -75 8 -18 15 -22 33 -17 40 12 47 27 31 60 -13 28 -23
46 -74 130 l-18 30 55 93 c42 72 52 96 44 106 -14 17 -45 26 -58 17 -11 -7
-66 -98 -77 -125 -6 -17 -15 -7 -54 57 -26 42 -53 77 -59 77 -7 0 -22 -9 -33
-20z"/>
<path d="M2382 2035 l1 -35 53 0 c55 0 69 -11 53 -42 -5 -9 -13 -44 -17 -77
-7 -49 -6 -61 5 -61 8 0 13 -6 12 -12 -1 -7 -1 -32 0 -55 l1 -43 55 0 c37 0
55 4 56 13 3 41 -1 91 -8 96 -11 8 -10 72 1 90 6 10 5 16 -2 19 -8 2 -7 8 3
19 8 8 15 23 15 34 0 16 7 19 53 19 50 0 53 2 51 23 -1 12 -3 28 -3 35 -1 9
-41 12 -166 12 l-164 0 1 -35z"/>
<path d="M2744 2045 c0 -14 6 -25 13 -25 7 0 10 -6 7 -14 -3 -8 -1 -17 5 -21
6 -3 11 -23 11 -44 0 -31 -4 -40 -21 -44 -14 -4 -20 -11 -16 -21 4 -9 -1 -19
-10 -24 -13 -8 -13 -10 0 -15 11 -4 14 -20 12 -67 l-3 -61 142 3 c117 3 140 5
138 18 -2 8 4 20 13 26 15 11 13 13 -16 18 -19 3 -61 7 -94 9 -60 2 -60 2 -63
35 l-3 32 70 0 c65 0 70 2 73 23 2 12 9 22 17 22 8 0 16 6 19 13 3 9 -16 12
-71 12 l-75 0 3 30 c2 21 -2 30 -12 30 -8 0 -11 5 -8 10 3 6 42 10 85 10 43 0
82 5 85 10 3 6 -1 10 -10 10 -9 0 -14 4 -11 9 4 5 3 16 0 25 -5 14 -27 16
-143 16 l-137 0 0 -25z"/>
<path d="M3150 2055 c-14 -8 -19 -14 -12 -15 7 0 1 -11 -13 -24 -15 -14 -24
-29 -21 -34 7 -12 -18 -94 -27 -86 -4 4 2 -10 12 -32 12 -25 15 -41 9 -45 -7
-4 -7 -13 1 -26 5 -11 8 -23 6 -27 -3 -3 -2 -4 1 -2 3 2 29 -8 57 -23 93 -49
216 -39 285 23 20 18 44 35 52 38 8 3 -10 12 -42 21 -70 21 -76 21 -80 1 -7
-37 -133 -47 -154 -12 -5 7 -3 8 6 3 7 -4 3 6 -9 22 -27 36 -23 84 8 117 12
13 18 26 14 29 -3 4 3 8 15 8 12 1 28 2 35 3 15 3 87 -35 87 -46 0 -12 26 -10
70 8 32 13 38 19 31 33 -31 56 -265 103 -331 66z"/>
<path d="M3569 2058 c-1 -7 -1 -30 0 -50 0 -20 -4 -40 -10 -44 -8 -4 -7 -9 2
-15 8 -5 14 -30 15 -66 2 -76 1 -73 21 -73 30 0 3 -14 -38 -19 -4 -1 -4 -33 0
-73 1 -5 26 -8 56 -8 l55 0 0 40 c0 22 5 41 10 41 6 1 14 2 19 3 18 2 24 16 8
16 -10 0 -17 8 -17 19 0 16 9 20 55 23 64 4 78 1 69 -15 -5 -8 -2 -8 7 1 20
19 38 15 32 -8 -3 -11 -8 -20 -12 -20 -4 0 -7 -22 -7 -50 l-1 -50 59 0 60 0
-3 40 c-2 21 0 42 4 46 4 4 7 16 7 26 0 11 5 16 10 13 6 -3 10 -1 10 4 0 6 -4
11 -9 11 -6 0 -11 21 -13 48 -3 43 -5 47 -30 50 -33 4 -38 20 -5 18 20 -1 22
4 24 52 l2 53 -57 -3 -57 -3 0 -50 c-1 -47 -2 -50 -30 -56 -29 -6 -29 -7 -4
-8 15 0 32 -8 39 -16 11 -13 2 -15 -69 -15 -65 0 -81 3 -81 15 0 8 -7 15 -15
15 -8 0 -15 5 -15 11 0 5 5 7 10 4 10 -6 12 6 12 60 0 14 0 30 -1 35 -2 15
-111 13 -112 -2z"/>
<path d="M3295 1810 c-3 -5 -2 -10 4 -10 5 0 13 5 16 10 3 6 2 10 -4 10 -5 0
-13 -4 -16 -10z"/>
<path d="M3057 1634 c-1 -1 -36 -5 -77 -8 -41 -4 -93 -10 -115 -14 l-40 -7 1
-85 c1 -47 4 -175 7 -285 3 -110 6 -223 6 -252 l1 -52 203 5 c231 6 241 9 295
88 48 72 66 144 67 266 0 161 -42 272 -125 328 -31 21 -44 23 -128 20 -51 -2
-94 -4 -95 -4z m141 -223 c21 -2 44 -71 43 -128 0 -53 -22 -108 -47 -117 -18
-7 -184 -10 -190 -3 -3 3 -6 58 -7 124 l-2 118 55 5 c47 4 95 5 148 1z"/>
<path d="M3467 1623 c-3 -3 -6 -84 -7 -181 -1 -98 -3 -250 -5 -339 l-4 -163
32 0 c41 -1 180 -7 332 -15 l120 -6 3 74 2 75 -32 6 c-18 3 -64 9 -103 12 -38
4 -77 8 -85 9 -8 2 -34 4 -57 4 l-43 1 0 50 0 50 63 -5 c34 -3 105 -12 157
-19 72 -11 96 -12 102 -3 4 7 8 40 8 74 0 60 -1 63 -27 68 -16 4 -39 9 -53 12
-14 3 -36 7 -50 9 -14 2 -34 6 -45 8 -11 3 -47 8 -80 12 -33 3 -63 10 -66 15
-3 5 -4 23 -1 39 3 24 8 29 26 25 11 -2 39 -7 61 -11 74 -11 100 -16 160 -30
33 -7 65 -14 71 -14 7 0 10 28 10 77 l-1 77 -108 27 c-59 15 -125 30 -145 33
-20 4 -46 8 -57 10 -11 2 -47 7 -80 11 -33 4 -67 9 -77 11 -9 1 -19 0 -21 -3z"/>
<path d="M2494 1526 c-85 -28 -107 -39 -110 -57 -3 -21 -68 -235 -126 -414
-49 -156 -53 -171 -39 -169 3 1 39 4 80 8 41 3 76 8 79 10 2 2 9 26 16 52 14
55 21 59 144 68 l80 6 6 -27 c4 -16 12 -40 18 -55 l10 -28 87 6 c47 3 87 7 88
8 3 2 -30 92 -46 131 -5 11 -43 106 -85 210 -103 260 -110 275 -121 274 -5 0
-42 -11 -81 -23z m34 -266 l30 -75 -52 -12 c-28 -6 -52 -10 -54 -8 -2 1 7 41
19 89 12 48 23 85 24 84 2 -2 17 -37 33 -78z"/>
<path d="M4044 1457 c-1 -23 -4 -94 -7 -157 -4 -63 -9 -178 -13 -255 l-6 -140
54 -3 c29 -2 67 -5 84 -7 285 -35 342 -25 394 67 45 81 19 209 -64 311 -33 40
-65 64 -142 104 -93 49 -267 123 -289 123 -5 0 -11 -19 -11 -43z m334 -258
c44 -28 58 -115 25 -152 -13 -14 -26 -17 -56 -13 -21 3 -41 7 -45 10 -4 2 -23
7 -43 10 -72 11 -71 9 -68 110 1 50 4 94 6 98 3 7 150 -44 181 -63z"/>
<path d="M2112 1365 c-108 -56 -220 -126 -304 -188 l-28 -21 0 -164 0 -163 48
6 c26 3 56 8 67 10 11 2 25 4 31 4 8 1 10 21 8 60 l-3 59 112 27 c62 15 123
29 136 32 14 2 29 6 33 9 14 9 6 144 -8 144 -15 0 -164 -52 -228 -80 l-46 -19
0 23 c0 25 32 42 195 106 44 17 90 35 103 40 21 9 22 14 17 92 -3 45 -7 83 -8
84 -1 2 -58 -26 -125 -61z"/>
</g>
</svg>
